
<global>
amp_veltrack=0
ampeg_release=0.35
xf_cccurve=gain
xfin_hicc1=127
xfout_hicc1=127
xfout_locc1=127
</global>

<group>
group_label=PP
lpc_hicc1=42
lpc_locc1=0

<region>
hikey=a3
hivel=127
lokey=g#3
loop_end=289310
loop_mode=loop_continuous
loop_start=100532
loop_xfade=43662
lovel=0
lpc=lCozQTrYxsFZ6KRBjjbNwJ1jBb/jeNm/HhFqQA/J8b/2Iko/WRJuv/wCzL4OYL4/0fRWv360rr8x9EJAcPg9wL0q1j+iPCm/Xt57P11GFz9l4f+/UxarPd165z/2lFW/
lpc_rms=-48.67
pitch_keycenter=a3
sample=Violin1Solo_sul_tasto_PP_A3.opus
</region>

<region>
hikey=a4
hivel=127
lokey=g#4
loop_end=266509
loop_mode=loop_continuous
loop_start=75257
loop_xfade=32685
lovel=0
lpc=89TOQfAQhMK3JotCcnUZwoC7TUHrKxfBY0szQavkysD2JMw++SCYP5IuZr5LQ+Q+5mwcwJ2+Lz+KWfdACRQ7wcEGDkG1yJHAHDM4QHRKo7+SSnDAwxXiQPZ2z8C5GVFA
lpc_rms=-37.88
pitch_keycenter=a4
sample=Violin1Solo_sul_tasto_PP_A4.opus
</region>

<region>
hikey=a5
hivel=127
lokey=g#5
loop_end=276238
loop_mode=loop_continuous
loop_start=78488
loop_xfade=34089
lovel=0
lpc=x94QQfClicHS5oNBW5gQwfsJqkA3QYHAX89XQKzMm7/lY4A/YEULvgg6mr9qY4VA4bBgwJEQkz/Q3rA/e/Q9v7yOzT/4xi3A3NxvQI0K+b/I/tU/NG49wNfinUCeQhjA
lpc_rms=-43.58
pitch_keycenter=a5
sample=Violin1Solo_sul_tasto_PP_A5.opus
</region>

<region>
hikey=a6
hivel=127
lokey=g#6
loop_end=275350
loop_mode=loop_continuous
loop_start=100592
loop_xfade=43689
lovel=0
lpc=rfjTQEquFsG3aeRA7wFrwPB3vD/RXqW/l5LkP8A4X76AdUy/JCMaQMdUCcCBs4M/PewpP9XThMCLuiRARGS1PZhyo75n4II9M2MjP99gq776zAa/6wqMP8I5qb+YjwA/
lpc_rms=-51.42
offset=28697
pitch_keycenter=a6
sample=Violin1Solo_sul_tasto_PP_A6.opus
</region>

<region>
hikey=b3
hivel=127
lokey=a#3
loop_end=266414
loop_mode=loop_continuous
loop_start=76230
loop_xfade=33108
lovel=0
lpc=QZL1QQrSh8JTPldCo45ZwU/oCMHJMJxASGbVP6OBo7x0kSnA2plyQI4qzMBZpdVAsVA5wFZRHb8Di61A2x3awLJueEDX5sM+eOlAP6rjtT8os5fA8r3+vm85MEAS4FW/
lpc_rms=-37.67
pitch_keycenter=b3
sample=Violin1Solo_sul_tasto_PP_B3.opus
</region>

<region>
hikey=b4
hivel=127
lokey=a#4
loop_end=262958
loop_mode=loop_continuous
loop_start=74660
loop_xfade=32426
lovel=0
lpc=kz4MQjE9osJ0vpxCW9MfwlZFXEG4ZkjBkyBNQR/9q8CiAmtAi8uvv/lNlsAGwa1AskF+wAyqPMCGFm1BYQh9wU9+CEHHWbnAHlynQPIXGz9/PqbAJ2ylQF+NAMADP68/
lpc_rms=-35.87
pitch_keycenter=b4
sample=Violin1Solo_sul_tasto_PP_B4.opus
</region>

<region>
hikey=b5
hivel=127
lokey=a#5
loop_end=271972
loop_mode=loop_continuous
loop_start=78005
loop_xfade=33879
lovel=0
lpc=nwkVQWnbVcFL5zhBcYHbwDKXR0BXzZK/0k84P72ZaL/yPmE/8gcJvduCPz6rn3W+tdpUPiaLNb/TWLk/FBO2vwSwmj/JSeK+qgLCPloPMr7Khhm+9R7UO6HTkD+fJF3A
lpc_rms=-46.04
pitch_keycenter=b5
sample=Violin1Solo_sul_tasto_PP_B5.opus
</region>

<region>
hikey=E7
hivel=127
lokey=a#6
loop_end=278343
loop_mode=loop_continuous
loop_start=102392
loop_xfade=66134
lovel=0
lpc=iWC9QJ4MBsF1QchAI28ywIbo5TytbBs/6IWDPwankL+ZGRI/+9B5P7FRkL85Nhs84WE1wA7xeUBdpwzAR/EIP1x5Wz/6wV+/FnHjvsOTOT+e6CG+3INyv/VXpT8KVmy/
lpc_rms=-54.59
offset=18355
pitch_keycenter=B6
sample=Violin1Solo_sul_tasto_PP_B6.opus
</region>

<region>
hikey=c#4
hivel=127
lokey=c4
loop_end=271691
loop_mode=loop_continuous
loop_start=78152
loop_xfade=33942
lovel=0
lpc=ANc4Qjo81MIfu7BC7qnawTpPMcFVwvRAePq2QN3k5MCGELZAMQokwA5B4cCYEl1BaPepwNtvocD+lmVBbvBpwd1VskCGuBxA7OyQv1KtkT9bq6zA6v5eQCcB+sDwl9VA
lpc_rms=-34.33
pitch_keycenter=c#4
sample=Violin1Solo_sul_tasto_PP_C#4.opus
</region>

<region>
hikey=c#5
hivel=127
lokey=c5
loop_end=273452
loop_mode=loop_continuous
loop_start=91049
loop_xfade=39544
lovel=0
lpc=J4qDQbKvDcICmQBCUWJ2wae5xEBeFtbAUBG+QMNHKsB5azI/KF0+QAqShMBXLrM/YtaHP/RuesCnm9lANdaawJMSrD96nmK9KZarP8/TEb9+/9W+KCr1vt00r70qEsY/
lpc_rms=-42.44
offset=406
pitch_keycenter=c#5
sample=Violin1Solo_sul_tasto_PP_C#5.opus
</region>

<region>
hikey=c#6
hivel=127
lokey=c6
loop_end=268644
loop_mode=loop_continuous
loop_start=89849
loop_xfade=39023
lovel=0
lpc=sdwaQRKWXsHhRylBEgeywD80NkCd4/W/6Y+8P7CXKb/mwy67Kq4oP9FOxr7DzCM/WMwYPp0pwb8OhkhASQ47wJMI9z/N7o+/bQhbP2D2Gb+ZMr8/xEzNwAXaeEBb8ua+
lpc_rms=-45.35
pitch_keycenter=c#6
sample=Violin1Solo_sul_tasto_PP_C#6.opus
</region>

<region>
hikey=d#4
hivel=127
lokey=d4
loop_end=282838
loop_mode=loop_continuous
loop_start=91676
loop_xfade=39816
lovel=0
lpc=OlgTQZiUo8E9qY9BUFrZwJz7Bb8jE0k/uDiPPwEIy7+pP8U/aXqiv0o8mL4TBOs/KW+fv3fJib7fghFAUGAywMZ/sz+w6fq9WhrQPVmtlj7x71K+ku82v5445D6YuH0+
lpc_rms=-50.59
pitch_keycenter=d#4
sample=Violin1Solo_sul_tasto_PP_D#4.opus
</region>

<region>
hikey=d#5
hivel=127
lokey=d5
loop_end=272573
loop_mode=loop_continuous
loop_start=79185
loop_xfade=34391
lovel=0
lpc=dXomQcIQvMHrB7JBZxdAwcfYqUCYVyDAQSbLPzCg5L8XSPg/feMqPkYhX79hAuQ+zZShvoQfjL+qAFlAR085wIc1lz/SeUa//qEkPzj0/T8OOlDAp6oZQFDkHcDVHv4/
lpc_rms=-47.95
pitch_keycenter=d#5
sample=Violin1Solo_sul_tasto_PP_D#5.opus
</region>

<region>
hikey=d#6
hivel=127
lokey=d6
loop_end=273111
loop_mode=loop_continuous
loop_start=77387
loop_xfade=33610
lovel=0
lpc=57GHQXsCwsH4Mo5B6RX4wHaLHED5vUXAO8OHQP6uUMA2ofA/rtOaP0JlEMBIPeI/Ntszvg6AQD+ldFG+5CYhPtI2Oz+8JNg9kZS1v6I6G8EsvT5BYMW2wJknID/pq8g/
lpc_rms=-41.18
pitch_keycenter=d#6
sample=Violin1Solo_sul_tasto_PP_D#6.opus
</region>

<region>
hikey=f4
hivel=127
lokey=e4
loop_end=266242
loop_mode=loop_continuous
loop_start=75740
loop_xfade=32895
lovel=0
lpc=Zc2AQXVECsLV9NtBm0oYwUIehz/9lzDAKKs2QJGtLT8A+PG/JkH9P8JrS8CeZINAowVMwOkTET+KCU1A5USewL9YK0Cnwdg9jl4Nv4Kq7D/q/0vAF1wDQOvtob+dvIA/
lpc_rms=-44.19
pitch_keycenter=f4
sample=Violin1Solo_sul_tasto_PP_F4.opus
</region>

<region>
hikey=f5
hivel=127
lokey=e5
loop_end=266468
loop_mode=loop_continuous
loop_start=97348
loop_xfade=42280
lovel=0
lpc=7/8FQa7YgMHJV1pBSGzOwENXP0Ai0CnAP2kMQHY3fL8B2Hs/Bk31vihkBj/ZKeG+JmbBPQ4OuL98sotAsJNfwH8Rmz+Iblm+JsdOPyJ/5z5Vsn6/ttw1v6Qr2j8mwh++
lpc_rms=-49.04
pitch_keycenter=f5
sample=Violin1Solo_sul_tasto_PP_F5.opus
</region>

<region>
hikey=f6
hivel=127
lokey=e6
loop_end=268276
loop_mode=loop_continuous
loop_start=94583
loop_xfade=41079
lovel=0
lpc=at7NQD8ZCsFaMtlAM4FqwAPNrz9y/wC/DpGtvJZyAD4JVoS+yC1rP+uFZ7+CUT0//dM5Pgh2374rUlU/t3bAvhSfAr6DLIXARKybQGTQOsA1U24/e20NP1fKoL42tfk+
lpc_rms=-49.96
offset=11682
pitch_keycenter=f6
sample=Violin1Solo_sul_tasto_PP_F6.opus
</region>

<region>
hivel=127
key=g3
loop_end=264533
loop_mode=loop_continuous
loop_start=77156
loop_xfade=33510
lovel=0
lpc=/iTVQYkJfsL0QVtCtP5sweEt1cAYz6U/iGXCQCi/XcA5ox0/2s66PWaEkcDbNNZA6Drjv5ydFMAvuENAbYFkwKLKSEC82Ku/vWGgP3GLEr5Jdz3AftzQP4bZiz/KnI+9
lpc_rms=-40.76
sample=Violin1Solo_sul_tasto_PP_G3.opus
</region>

<region>
hikey=g4
hivel=127
lokey=f#4
loop_end=278818
loop_mode=loop_continuous
loop_start=79174
loop_xfade=34387
lovel=0
lpc=7/6OQfa6KsKRKiFCswmawcwzv0DQ4dbAAbcaQceux8CUuRJA5YumPIRoy79yfzBAb02FwCtAdz90iK9Ar6sDweW6rUBAIoy/XDwwP5LEFr+/0oK/zFrcP6nPR8BFIyVA
lpc_rms=-40.28
pitch_keycenter=g4
sample=Violin1Solo_sul_tasto_PP_G4.opus
</region>

<region>
hikey=g5
hivel=127
lokey=f#5
loop_end=281626
loop_mode=loop_continuous
loop_start=87992
loop_xfade=38216
lovel=0
lpc=M0zVQO5/NsHvjBFBSuqVwG+LcEAGkEDAB+FdQAAdZ8AuRFFAH3nqvhbjLr9e5iw/RuNcv+nZQz9GeM8/VVC0vxM8kD9XGfi+zgphv7HHAEDvmDy/6OlrPy8ep78UhMs/
lpc_rms=-46.36
offset=21113
pitch_keycenter=g5
sample=Violin1Solo_sul_tasto_PP_G5.opus
</region>

<region>
hikey=g6
hivel=127
lokey=f#6
loop_end=278824
loop_mode=loop_continuous
loop_start=99941
loop_xfade=43406
lovel=0
lpc=c74fQaNqWsGIAx5BAyKgwL6ACUCdqzvAW8pzQOmvjMD5R2hAeQUoP3nc+r/uzyVAgzwNwF9w7D8qrIK/2kzdwBof8UCJnFTASDf4PmexrD4z9+M/c6kowEyrWED77ijA
lpc_rms=-48.75
offset=28682
pitch_keycenter=g6
sample=Violin1Solo_sul_tasto_PP_G6.opus
</region>
</group>

<group>
group_label=MF
lpc_hicc1=84
lpc_locc1=43

<region>
hikey=a3
hivel=127
lokey=g#3
loop_end=272192
loop_mode=loop_continuous
loop_start=68192
loop_xfade=34883
lovel=0
lpc=w3FVQcE7AcJ4pfFByFMewb22mMD0AoBAAzfEPzitJMDVdpU/SwzMPop+MsCbjnJA695Zv1ZMhcCvrJ1A+i8MwJNm9j6E8PW9ZnULPx1cTD8yJNC/12d6PQOIqj+HHBm/
lpc_rms=-35.59
pitch_keycenter=a3
sample=Violin1Solo_sul_tasto_MF_A3.opus
</region>

<region>
hikey=a4
hivel=127
lokey=g#4
loop_end=263258
loop_mode=loop_continuous
loop_start=79427
loop_xfade=34496
lovel=0
lpc=dud+QWjTK8LsyUhC6gIDwjaoWEHpWvjAKhH+QB/0wsDIAShA+w/1Pw2pusCeZNNAb9RCwC3ZFsAo2KlA8JC5wDNoqkBUE96/qC3jvxsDLUAzdznAyMeVQAtVtsBrKzBA
lpc_rms=-31.66
pitch_keycenter=a4
sample=Violin1Solo_sul_tasto_MF_A4.opus
</region>

<region>
hikey=a5
hivel=127
lokey=g#5
loop_end=273164
loop_mode=loop_continuous
loop_start=78637
loop_xfade=34154
lovel=0
lpc=reMfQZWKOsE4MS1BaHE9wGYHN0BQ9hc/tw1IPl0fIkDz7cM/8HvAvd/7OD/5Lk1AcEj0PjHCkj7Z1rU/juwAQJjD2T9P/12/X8gMQAoBIUBfnCy/recyQG4szr8mwphA
lpc_rms=-30.12
pitch_keycenter=a5
sample=Violin1Solo_sul_tasto_MF_A5.opus
</region>

<region>
hikey=a6
hivel=127
lokey=g#6
loop_end=267772
loop_mode=loop_continuous
loop_start=74059
loop_xfade=32165
lovel=0
lpc=83u6QX97lcHnxQtB9yOKQFayN8AfRhw/wVKlP66gQj9Nyf+/AaaXQIbDw0AWMhPAkkXIQNMcVMGkkLDAhftxQVWfTsE9/otAchmFP/CPYD8qS2u+OQbZP+cx2D+YvNPA
lpc_rms=-27.49
pitch_keycenter=a6
sample=Violin1Solo_sul_tasto_MF_A6.opus
</region>

<region>
hikey=b3
hivel=127
lokey=a#3
loop_end=276424
loop_mode=loop_continuous
loop_start=51155
loop_xfade=24920
lovel=0
lpc=rpsXQsTAyMKGr9FCTEo/wogSKsCF+AdBa6yDQHC+1MDKc2hAH2YLPukQ8cDKUUlBlYn8wKJfnMAYIVtBCbcjwQy0qUB/9KLA8s6+QPzEHz9csbzAvBAVwCHnHkEG+qfA
lpc_rms=-27.49
pitch_keycenter=b3
sample=Violin1Solo_sul_tasto_MF_B3.opus
</region>

<region>
hikey=b4
hivel=127
lokey=a#4
loop_end=272730
loop_mode=loop_continuous
loop_start=76816
loop_xfade=33362
lovel=0
lpc=pF+nQYcAScLi/U9CO3H4wVhZg0FRsIHBCJJgQW1K68B4s9VA/TOYwCwLNr8uWmRAN2N9wHMiHb4DaadAxBttwBGYXL8sz3xAAcgSwEgnPz/iHyfAbexxQLDRZ8CD9yhA
lpc_rms=-26.06
pitch_keycenter=b4
sample=Violin1Solo_sul_tasto_MF_B4.opus
</region>

<region>
hikey=b5
hivel=127
lokey=a#5
loop_end=279626
loop_mode=loop_continuous
loop_start=78778
loop_xfade=34214
lovel=0
lpc=eMUgQRfyEcGC4uFANyHov+WLuT+tSPK9FKnMP7hvgD7NATY/E5+TP62Hyb1G9uE/5V4Mvz4zyj81laA+EltqP9ukOz9ZjaY+NvDRP6ghtr6QXNM/mJeGv+HglUD5SbPA
lpc_rms=-30.48
pitch_keycenter=b5
sample=Violin1Solo_sul_tasto_MF_B5.opus
</region>

<region>
end=392844
hikey=E7
hivel=127
lokey=a#6
loop_end=275698
loop_mode=loop_continuous
loop_start=84953
loop_xfade=47373
lovel=0
lpc=B3p7QW0cTcE/8u1ApxT0PdANhz9cjRLAcjU1QJwqMr+QsLQ/oFl6QL7+zj/s+du/Ch1NwWeVHUHT4S/ASm4Yv9IlAT8g/xZAVnmTPlhoYD3YuG0/OGwgwI4Wv7/A3GRA
lpc_rms=-32.13
pitch_keycenter=B6
sample=Violin1Solo_sul_tasto_MF_B6.opus
</region>

<region>
hikey=c#4
hivel=127
lokey=c4
loop_end=269549
loop_mode=loop_continuous
loop_start=79018
loop_xfade=34319
lovel=0
lpc=6oEiQlW14cL9Tv1CzQmHwuz1okAZshBBGguGQLorJMHGQKlAtrl4QBnfUsGkiYtBevIZwbQrpcDePY9B1d+VwdlAI0Hn8QPA/FFEQP9AZ8C4w27ATcshQdWpV8G7p+RA
lpc_rms=-26.76
pitch_keycenter=c#4
sample=Violin1Solo_sul_tasto_MF_C#4.opus
</region>

<region>
hikey=c#5
hivel=127
lokey=c5
loop_end=270736
loop_mode=loop_continuous
loop_start=78410
loop_xfade=34055
lovel=0
lpc=fPobQXlBpsFNHJRBCAURwf4buEBUofXAG0jaQLF6hsDifWxAQAgBwD/vPb9OBpw/XtbZPlW/CsCGbD1AAMiSv0l4Y7+J1Z0/a8Mhv/6lNj9YN3e/FqoRQKExOcBSDuM/
lpc_rms=-30.84
pitch_keycenter=c#5
sample=Violin1Solo_sul_tasto_MF_C#5.opus
</region>

<region>
hikey=c#6
hivel=127
lokey=c6
loop_end=250986
loop_mode=loop_continuous
loop_start=75419
loop_xfade=32756
lovel=0
lpc=mf0+QSB9DsGGs6JAYp/wv2k6+T8H3y6/zhXeP0jZQT4XNf4+8/d7P2rZpj754Yo/CblvvqaCrj9pjAQ+jLSMP2aTcT4Mz+0+NGfRPz0onL+vqGJAv9zwwMnRHL/PMgxA
lpc_rms=-30.74
pitch_keycenter=c#6
sample=Violin1Solo_sul_tasto_MF_C#6.opus
</region>

<region>
hikey=d#4
hivel=127
lokey=d4
loop_end=257412
loop_mode=loop_continuous
loop_start=77990
loop_xfade=33872
lovel=0
lpc=ekNaQR1SFcKEACtCeRfDwQf/jkDrf/Q/cHUIP9N6KcAs+u4/vBfgP5REwcBh+vhAgYGjwHOKfL5AZXBAg8d1wJ+/OUAsiwDA8aD1Py+gXL+W9d6+DCxcvSQPPT/vXqG+
lpc_rms=-35.41
pitch_keycenter=d#4
sample=Violin1Solo_sul_tasto_MF_D#4.opus
</region>

<region>
hikey=d#5
hivel=127
lokey=d5
loop_end=274693
loop_mode=loop_continuous
loop_start=77405
loop_xfade=33618
lovel=0
lpc=GwDmQAiLgMFl/3RBWn8EwcTenkCSDqrA1U6rQH6tfsCRNE5ANwANwHyWwD52QX8/Jo3kvmyCQ79X2uE/wtD4v91VfD8H8ig/plk2v34vSD8ZCGW/i95jP8btg78F718/
lpc_rms=-30.71
pitch_keycenter=d#5
sample=Violin1Solo_sul_tasto_MF_D#5.opus
</region>

<region>
hikey=d#6
hivel=127
lokey=d6
loop_end=258528
loop_mode=loop_continuous
loop_start=75301
loop_xfade=32704
lovel=0
lpc=HzRVQSBDJ8GgA5tAqASlP/fwt7+wjOI/CZQRvz8Itz/JQKe95ygOQDfd8L/L0DBAQFeNv2GPDkDdPS2/BshtP6oquT9G1G2/aglDQM4qPsHue7FASdiGP8CNSMCobO0/
lpc_rms=-30.67
pitch_keycenter=d#6
sample=Violin1Solo_sul_tasto_MF_D#6.opus
</region>

<region>
hikey=f4
hivel=127
lokey=e4
loop_end=253239
loop_mode=loop_continuous
loop_start=77580
loop_xfade=33695
lovel=0
lpc=LY6iQVYSUMIMz1hCqcHcwbYytUCFW5PA0dfoQNo7e8DgK3U/ysQWQOHX38CLUBZBNfy1wA71dr9Mr9VAtfEOwXmUy0AM1hjAnWUpP2LRbb9evSm/0rUoQMybI8Dk/ro/
lpc_rms=-33.32
pitch_keycenter=f4
sample=Violin1Solo_sul_tasto_MF_F4.opus
</region>

<region>
hikey=f5
hivel=127
lokey=e5
loop_end=277716
loop_mode=loop_continuous
loop_start=78050
loop_xfade=33898
lovel=0
lpc=eZC2QG3zNMFC7yVBIkKMwPccBkCkUFTAv2BGQAHIaL9ie66+hvaFPwK0bb8pz50+BBOwP/vr7r9/uq8/VCTAPiwhsr8pLHQ/jvggvhaLxD/9GiTANxcLQOptxL4Qylg+
lpc_rms=-33.55
pitch_keycenter=f5
sample=Violin1Solo_sul_tasto_MF_F5.opus
</region>

<region>
hikey=f6
hivel=127
lokey=e6
loop_end=268972
loop_mode=loop_continuous
loop_start=75556
loop_xfade=32815
lovel=0
lpc=S0thQQchWMFDrSBBOYHGP5LrFcDz2vY/O6EOPTRKWj++3BE/5aYTP0DGnj81hEo+bkx5P2QDlj7r86c/XQ+YPgA8vz/oxkXBa0UqQcUgqsBjnFnAD8GAQDSW3r+fxoc/
lpc_rms=-29.25
pitch_keycenter=f6
sample=Violin1Solo_sul_tasto_MF_F6.opus
</region>

<region>
hivel=127
key=g3
loop_end=272320
loop_mode=loop_continuous
loop_start=77341
loop_xfade=33590
lovel=0
lpc=eJirQabsXsJtQWBCKgC0wSIjPcAivco/GwzHQDxrVMBI6cK9pkkJvw8aCcCKiLhAmrO4wEeUwT8ZWJxAgwEFwbpyz0BQAdO/khuav7t7GEDXI2fA//FQQOdcCMBHcaA/
lpc_rms=-31.64
sample=Violin1Solo_sul_tasto_MF_G3.opus
</region>

<region>
hikey=g4
hivel=127
lokey=f#4
loop_end=264901
loop_mode=loop_continuous
loop_start=77741
loop_xfade=33764
lovel=0
lpc=gwp6QWHqKsJcUkVCkjnwwWLrJEGEutbArHoRQfkno8DyYhO+SrnAPxp9EMDQ7olAyPmRwNgwVj8OSlVAXZqQwEFuVEB/GQfAPJiXP0SXkj/reUfAf2hNQNxMJcDxoLU/
lpc_rms=-31.70
pitch_keycenter=g4
sample=Violin1Solo_sul_tasto_MF_G4.opus
</region>

<region>
hikey=g5
hivel=127
lokey=f#5
loop_end=278077
loop_mode=loop_continuous
loop_start=80752
loop_xfade=35072
lovel=0
lpc=+pd0QGa/vsCVw55AWdrYv6zGAT/uuTS/LDLHP/Egt794Sq4/+05EvccGXL9T26E/8fzgvgGvsD3CtzI/syMWv8oFOD/iLsg+OP1AvzcTTD8z0jq9LDUJP1Y97L4kWxY/
lpc_rms=-35.34
pitch_keycenter=g5
sample=Violin1Solo_sul_tasto_MF_G5.opus
</region>

<region>
hikey=g6
hivel=127
lokey=f#6
loop_end=272107
loop_mode=loop_continuous
loop_start=77519
loop_xfade=33668
lovel=0
lpc=evcJQR0ftMCznT9Ack7KvaiakD6gG76/PuEsP5b1GD5aXC6/xDi9P6Bkk77p6Bg/hm9xP6CMgr48qso/M3vjwG+VGkCqXUE/aOSav+v4QT/u1aQ/IKcdP9TXt72fb1c/
lpc_rms=-35.98
pitch_keycenter=g6
sample=Violin1Solo_sul_tasto_MF_G6.opus
</region>
</group>

<group>
group_label=FF
lpc_hicc1=127
lpc_locc1=85

<region>
hikey=a3
hivel=127
lokey=g#3
loop_end=288714
loop_mode=loop_continuous
loop_start=81785
loop_xfade=35521
lovel=0
lpc=TIhrQW+2E8I+tBBCsV9ZwcKwkcBkZrxA2vkgvzA/ob/vNII/w0KCvopgBcDMFItA+A1uwD62qbzwUVRAfMp+wJS62z+BHtk/06jdv4ObIT/e1eU7FUVRvt/RzL6rCQI/
lpc_rms=-29.56
pitch_keycenter=a3
sample=Violin1Solo_sul_tasto_FF_A3.opus
</region>

<region>
hikey=a4
hivel=127
lokey=g#4
loop_end=279476
loop_mode=loop_continuous
loop_start=81013
loop_xfade=35185
lovel=0
lpc=mEOmQYGRZsLOJINCZCMWwujwQEH0dAfBoRYbQYuSnsAFVl+/TCy0QL7rAMGq9gJBy2aTwL9EmMBi6zpBe+kbwezJtUCm50HAE1rKP4a7Kb5Y8/a/MZOvQAQY58AFNl1A
lpc_rms=-24.09
pitch_keycenter=a4
sample=Violin1Solo_sul_tasto_FF_A4.opus
</region>

<region>
hikey=a5
hivel=127
lokey=g#5
loop_end=265956
loop_mode=loop_continuous
loop_start=75857
loop_xfade=32946
lovel=0
lpc=XgEyQX/CMsFmVghB7hzov5bFhEC8Q5E+jigHvpNHAkCBKRlA9mdeP6lPOz45Jy9A8vbYPalU+T9rhvc/91tCvsrtWEAVRr2/PllyQOvbtz8zxxG+2VCYP2WDtT9UTV9A
lpc_rms=-24.16
pitch_keycenter=a5
sample=Violin1Solo_sul_tasto_FF_A5.opus
</region>

<region>
hikey=a6
hivel=127
lokey=g#6
loop_end=263988
loop_mode=loop_continuous
loop_start=75466
loop_xfade=32776
lovel=0
lpc=eqWkQWXea8ETXmFARHhJQOqPoz5LtVRAh2mXwOFIxL62MQtANtthQNddDEDQEm6/aMKZQGPSRcHIj7HAmgRTQcXP98ACXANA3fcpwKnhgj/A8KlAIVy8vwwfub9WcDrA
lpc_rms=-24.92
pitch_keycenter=a6
sample=Violin1Solo_sul_tasto_FF_A6.opus
</region>

<region>
hikey=b3
hivel=127
lokey=a#3
loop_end=284494
loop_mode=loop_continuous
loop_start=81554
loop_xfade=35420
lovel=0
lpc=S1PcQaUOksIMlZZCJ/z9wdp55sChRFtBiMmSwBFDtz25i08+lCLfP/KfwMDM4QJBhSSewJNE57+XL/JAX6bUwDJ90T93KwBA1ORNv0GLrr3ht+O/M/seQAv/KMAl/rw/
lpc_rms=-24.49
pitch_keycenter=b3
sample=Violin1Solo_sul_tasto_FF_B3.opus
</region>

<region>
hikey=b4
hivel=127
lokey=a#4
loop_end=276218
loop_mode=loop_continuous
loop_start=79723
loop_xfade=34625
lovel=0
lpc=HT5xQbpwC8L2eQJCy0d1wYEHqEC5QOnAxgwEQazJMcDKYem/XRyXQPQZxMAZNNRAfq/ZwFxVb0ADGBG/uRjJP1HS8r/M8wK+6OsgQP5iScC4XyJA1GEIwGEyhT9Yi+Y+
lpc_rms=-23.01
pitch_keycenter=b4
sample=Violin1Solo_sul_tasto_FF_B4.opus
</region>

<region>
hikey=b5
hivel=127
lokey=a#5
loop_end=280470
loop_mode=loop_continuous
loop_start=78200
loop_xfade=33963
lovel=0
lpc=gUwHQWdj8cDkF+dAMgtWwG0XiUBR5AzAFUtKQJsT9r5NfKY/YSGSP/u7oT48NcM/AOaBPkIOqj8W+BA/JqVeP9dfsT/8IxC/xnxVQOX3CsCoG4JA6EsuwPcRrEAYVJHA
lpc_rms=-28.91
pitch_keycenter=b5
sample=Violin1Solo_sul_tasto_FF_B5.opus
</region>

<region>
hikey=E7
hivel=127
lokey=a#6
loop_end=281193
loop_mode=loop_continuous
loop_start=78249
loop_xfade=33985
lovel=0
lpc=W99kQT8RMsHC5a9AswwjP7FEmz+3VbC/SJt1QNnksr98Mko/Ce6SQGKujT8tX96/t79FwfUqGkFMyLa/Sig+v98Vvz7NdR5A9C8CwMaOB0DiR28/mD8nwBZesL/SmY9A
lpc_rms=-29.80
pitch_keycenter=B6
sample=Violin1Solo_sul_tasto_FF_B6.opus
</region>

<region>
hikey=c#4
hivel=127
lokey=c4
loop_end=282533
loop_mode=loop_continuous
loop_start=82670
loop_xfade=35905
lovel=0
lpc=YbX4QdlNqsJ5f7lC4C4xwqLIZ8Dej1NBtC5iwJtdur/lr8y+EyCGQOkD4cD7/g1BLMrDwKWdIsBxR0tBuXtiwYo600Bjvy1AClp0wIqzgz/HnErAS8nyQKhAJMG5g6VA
lpc_rms=-22.17
pitch_keycenter=c#4
sample=Violin1Solo_sul_tasto_FF_C#4.opus
</region>

<region>
hikey=c#5
hivel=127
lokey=c5
loop_end=280591
loop_mode=loop_continuous
loop_start=79372
loop_xfade=34473
lovel=0
lpc=BxcuQQfdt8ErLLBB6EU3wbZWmUDtgGfAg0IxQNNiFsBn9uA/KRS3vmrhC7+1zrk/N7u9v/wkDL4jCwpApqwOwP7ZzT+q8dS/hGudP57EMj/t2g2/yUtXPu54lz6sY5k+
lpc_rms=-26.31
pitch_keycenter=c#5
sample=Violin1Solo_sul_tasto_FF_C#5.opus
</region>

<region>
hikey=c#6
hivel=127
lokey=c6
loop_end=278131
loop_mode=loop_continuous
loop_start=88706
loop_xfade=38527
lovel=0
lpc=F/UrQcXK8cDfOpJAqd0CwAmbB0BYHgi/crG9P7LH4D3fHwc/hKsjP9qlVz8oTgy+9QuzP7C1Wj26lEs/Vuu1Pi48ND/AlIg9ykLGPxAejL+yGmhAdy3pwGI0Er/I9+E/
lpc_rms=-29.61
pitch_keycenter=c#6
sample=Violin1Solo_sul_tasto_FF_C#6.opus
</region>

<region>
hikey=d#4
hivel=127
lokey=d4
loop_end=280434
loop_mode=loop_continuous
loop_start=82003
loop_xfade=35616
lovel=0
lpc=ClhRQfWAC8KccxVCJ2WPwU1PCz8GbhlABsBMP9L5Yb9gl1+/1SX/PxuGK8D4CjRAGlHYv0WES78dinVAEXSXwJ5HLUBdcYk+8lN4v4n9QT9mhZS/JuRhP8hk2b4Qt4A+
lpc_rms=-31.45
pitch_keycenter=d#4
sample=Violin1Solo_sul_tasto_FF_D#4.opus
</region>

<region>
hikey=d#5
hivel=127
lokey=d5
loop_end=271161
loop_mode=loop_continuous
loop_start=78254
loop_xfade=33987
lovel=0
lpc=0wgMQaSlpsEzGaVBmIcdwfmiZkC4IqnAoo/uQFwBpMBiE+8/vJcqv3R+RT9dVzs/+cUkwMMtAUB9Vx4/xFLYv3X2BL7iNihAZxT5v9nIQD8iz1m/XEzyP4UzGsDgWcA/
lpc_rms=-28.50
pitch_keycenter=d#5
sample=Violin1Solo_sul_tasto_FF_D#5.opus
</region>

<region>
hikey=d#6
hivel=127
lokey=d6
loop_end=267539
loop_mode=loop_continuous
loop_start=75553
loop_xfade=32814
lovel=0
lpc=7MReQdCzQcG8lr9AhfGUPyi2J0DQF2q/DoQVQHppQr19mPE/WZGdP+CDKr13HfY/neMHP+n57z+lnZM+HKOIP10D3D/mZ3g8uBM3QGLwMcHy+sNA4roRQMOVhMD0iTw/
lpc_rms=-26.34
pitch_keycenter=d#6
sample=Violin1Solo_sul_tasto_FF_D#6.opus
</region>

<region>
hikey=f4
hivel=127
lokey=e4
loop_end=288809
loop_mode=loop_continuous
loop_start=85496
loop_xfade=37133
lovel=0
lpc=Yy5LQQhxAMI1DAZCCBOBwSMFCUDSDN2/ERozQDjHs75zhFi//qKGPoYlyL/QOXBAruNUwNVTlz90Xm4/3l4qwNEvM0Aua6O/qSw9PkA1Mz8pp+m/sjISQLbztb9DXgs/
lpc_rms=-28.92
pitch_keycenter=f4
sample=Violin1Solo_sul_tasto_FF_F4.opus
</region>

<region>
hikey=f5
hivel=127
lokey=e5
loop_end=273615
loop_mode=loop_continuous
loop_start=79630
loop_xfade=34585
lovel=0
lpc=DIrXQLUrY8FRmlZBpq2twOuXuD92ZRjASmpFQK3yBMCDL9A/i0p+v2GHvr5ZLpk/ME85P+H3SMBbmVtAj9Bkv5qfMr4n7Wm/O8cmQMuCtb+XAH6+kWiOPzy6hL5rYaY9
lpc_rms=-30.51
pitch_keycenter=f5
sample=Violin1Solo_sul_tasto_FF_F5.opus
</region>

<region>
hikey=f6
hivel=127
lokey=e6
loop_end=269465
loop_mode=loop_continuous
loop_start=86049
loop_xfade=37372
lovel=0
lpc=DzlfQSuVW8HT+RRBfvt0v8FGmT5p8oA/NZOOPqrk9z5oezE/ehPsPuWUwT7Evxo/WRHdPl9YqT7NCqs/5H7QvmCE9j94cU3BAg0pQZzYi8ALMOK/S83HP8uhPb9hNLY+
lpc_rms=-28.03
pitch_keycenter=f6
sample=Violin1Solo_sul_tasto_FF_F6.opus
</region>

<region>
hivel=127
key=g3
loop_end=263000
loop_mode=loop_continuous
loop_start=79807
loop_xfade=34662
lovel=0
lpc=FOGbQYwEVMLSiGRCWTLSwXpuGMD1/gRBKFAvwK5zcr8ais0/a8aVPHWsgsCFnMtAe+t7wGgg5r8Q9MJAlT2hwHgsyT9k5Zw/g9Tgv/J8jz/LIsC/MVfdP/H7fL+BSgM/
lpc_rms=-26.81
sample=Violin1Solo_sul_tasto_FF_G3.opus
</region>

<region>
hikey=g4
hivel=127
lokey=f#4
loop_end=286569
loop_mode=loop_continuous
loop_start=81788
loop_xfade=35522
lovel=0
lpc=rMdiQTQuGcI4eClCobe4wclGvkBqOT3AUGiNQPWZC8BY6H+/MpkMQBYFR8B2/ndATBTxv3tDF8AtZZRAHa5lwM8U1T/WT2e/QFFyP4czfb3HgGK/Ewi4Py9q479O3o4/
lpc_rms=-26.58
pitch_keycenter=g4
sample=Violin1Solo_sul_tasto_FF_G4.opus
</region>

<region>
hikey=g5
hivel=127
lokey=f#5
loop_end=269689
loop_mode=loop_continuous
loop_start=76808
loop_xfade=33359
lovel=0
lpc=UVd8QE3d18AbKsVAwlRKwFDp2z8kpGe/T91yP71air91kvg/+rWBvxAAor2jii0/Gd/8Pbi4rztOIZQ+52zxvkUbSD8JmsU+Kxg3v9qxJz/Cn/a+rRjdP38r37/tvJo/
lpc_rms=-29.82
pitch_keycenter=g5
sample=Violin1Solo_sul_tasto_FF_G5.opus
</region>

<region>
hikey=g6
hivel=127
lokey=f#6
loop_end=261481
loop_mode=loop_continuous
loop_start=75101
loop_xfade=32618
lovel=0
lpc=Cl1AQaSMA8EY4q9ARJUYv9BUVECmxOC/cOUCQAUxi791EzC/YQTeP+QWRD5LWtU//1lmP8l43D5VwjNA8/ojweSXmEDaqlm9nuGAvzQdiL+dL78/ewsGvhYLhz8AxwdA
lpc_rms=-30.12
pitch_keycenter=g6
sample=Violin1Solo_sul_tasto_FF_G6.opus
</region>
</group>